<?xml version="1.0" encoding="iso-8859-1"?>
<!-- Generator: Adobe Illustrator 18.1.1, SVG Export Plug-In . SVG Version: 6.00 Build 0)  -->
<svg version="1.1" id="Capa_1" xmlns="http://www.w3.org/2000/svg" xmlns:xlink="http://www.w3.org/1999/xlink" x="0px" y="0px"
	 viewBox="0 0 290.216 290.216" style="enable-background:new 0 0 290.216 290.216;" xml:space="preserve">
<path color-rendering="auto" image-rendering="auto" shape-rendering="auto" color-interpolation="sRGB" d="M95.31,0.006
	c-3.985-0.207-7.544,4.983-3.775,8.666l8.584,8.584v7.889c-0.039,2.761,2.168,5.032,4.929,5.071s5.032-2.168,5.071-4.929
	c0.001-0.047,0.001-0.094,0-0.141v-7.887l8.586-8.586c4.824-4.714-2.359-11.895-7.072-7.07l-6.514,6.512l-6.512-6.512
	C97.576,0.546,96.426,0.064,95.31,0.006L95.31,0.006z M145.044,0.145c-1.3,0.019-2.541,0.544-3.461,1.463l-10,10
	c-1.977,1.929-2.016,5.095-0.087,7.071c1.929,1.977,5.095,2.016,7.071,0.087c0.029-0.028,0.058-0.057,0.086-0.086l1.465-1.465
	v122.93h-135c-6.762-0.096-6.762,10.096,0,10h135v135c-0.096,6.762,10.096,6.762,10,0v-135h122.928l-1.463,1.463
	c-4.827,4.713,2.356,11.898,7.07,7.072l9.477-9.477c2.221-1.642,2.69-4.773,1.048-6.994c-0.158-0.214-0.334-0.416-0.524-0.602
	l-10-10c-0.942-0.969-2.237-1.515-3.588-1.514c-2.762,0.002-4.999,2.242-4.997,5.004c0.001,1.35,0.547,2.641,1.515,3.582
	l1.465,1.465h-32.93v-5c0.041-2.82-2.257-5.115-5.076-5.072c-2.76,0.042-4.964,2.312-4.924,5.072v5h-20v-5
	c0.041-2.82-2.257-5.115-5.076-5.072c-2.76,0.042-4.964,2.312-4.924,5.072v5h-20v-5c0.041-2.82-2.257-5.115-5.076-5.072
	c-2.76,0.042-4.964,2.312-4.924,5.072v5h-20v-20h5c6.762,0.096,6.762-10.096,0-10h-5v-20h5c6.762,0.096,6.762-10.096,0-10h-5v-20h5
	c6.762,0.096,6.762-10.096,0-10h-5v-32.93l1.465,1.465c1.929,1.976,5.095,2.014,7.071,0.085c1.976-1.929,2.014-5.095,0.085-7.071
	c-0.028-0.029-0.057-0.058-0.086-0.086l-10-10C147.698,0.652,146.396,0.125,145.044,0.145L145.044,0.145z M105.068,170.094
	c-4.788,0-8.77,2.928-11.23,6.619c-2.461,3.691-3.77,8.338-3.77,13.381s1.309,9.688,3.77,13.379
	c2.461,3.691,6.442,6.621,11.23,6.621s8.77-2.93,11.23-6.621c2.461-3.691,3.77-8.336,3.77-13.379s-1.309-9.69-3.77-13.381
	C113.837,173.022,109.856,170.094,105.068,170.094z M265.066,170.094c-2.762,0.002-4.999,2.242-4.997,5.004
	c0.001,1.35,0.547,2.641,1.515,3.582l6.465,6.465l-6.465,6.463c-1.977,1.929-2.015,5.095-0.086,7.071
	c1.929,1.977,5.095,2.015,7.071,0.086c0.029-0.028,0.057-0.057,0.086-0.085l6.465-6.465l6.465,6.465
	c1.929,1.976,5.095,2.014,7.071,0.085c1.976-1.929,2.014-5.095,0.085-7.071c-0.028-0.029-0.057-0.057-0.086-0.085l-6.465-6.463
	l6.465-6.465c1.98-1.925,2.025-5.091,0.1-7.071c-0.978-1.006-2.333-1.555-3.735-1.513c-1.298,0.039-2.53,0.581-3.435,1.512
	l-6.465,6.465l-6.465-6.465C267.711,170.639,266.417,170.093,265.066,170.094L265.066,170.094z M105.068,180.094
	c0.735,0,1.752,0.428,2.91,2.166c1.159,1.738,2.09,4.593,2.09,7.834s-0.931,6.094-2.09,7.832c-1.159,1.738-2.175,2.168-2.91,2.168
	s-1.752-0.43-2.91-2.168c-1.159-1.738-2.09-4.591-2.09-7.832s0.931-6.096,2.09-7.834
	C103.316,180.522,104.333,180.094,105.068,180.094z"/>
<g>
</g>
<g>
</g>
<g>
</g>
<g>
</g>
<g>
</g>
<g>
</g>
<g>
</g>
<g>
</g>
<g>
</g>
<g>
</g>
<g>
</g>
<g>
</g>
<g>
</g>
<g>
</g>
<g>
</g>
</svg>
