<?xml version="1.0" encoding="iso-8859-1"?>
<!-- Generator: Adobe Illustrator 19.0.0, SVG Export Plug-In . SVG Version: 6.00 Build 0)  -->
<svg version="1.1" id="Layer_1" xmlns="http://www.w3.org/2000/svg" xmlns:xlink="http://www.w3.org/1999/xlink" x="0px" y="0px"
	 viewBox="0 0 512 512" style="enable-background:new 0 0 512 512;" xml:space="preserve">
<g>
	<path style="fill:#2D527C;" d="M363.716,511.999H41.574C18.65,511.999,0,493.351,0,470.427V41.575
		C0,18.651,18.65,0.001,41.574,0.001h8.581c22.924,0,41.574,18.65,41.574,41.574v145.542c0,7.87-6.381,14.252-14.252,14.252
		s-14.252-6.382-14.252-14.252V41.575c0-7.207-5.863-13.07-13.07-13.07h-8.581c-7.207,0-13.07,5.865-13.07,13.07v428.852
		c0,7.207,5.863,13.07,13.07,13.07h322.141c7.871,0,14.252,6.382,14.252,14.252C377.967,505.619,371.588,511.999,363.716,511.999z"
		/>
	<path style="fill:#2D527C;" d="M470.426,511.999h-29.825c-7.871,0-14.252-6.382-14.252-14.252c0-7.87,6.381-14.252,14.252-14.252
		h29.825c7.207,0,13.07-5.863,13.07-13.07v-8.581c0-7.209-5.863-13.073-13.07-13.073H249.555c-7.871,0-14.252-6.382-14.252-14.252
		c0-7.87,6.381-14.252,14.252-14.252h220.871c22.924,0,41.574,18.651,41.574,41.577v8.581
		C512,493.351,493.35,511.999,470.426,511.999z"/>
	<path style="fill:#2D527C;" d="M228.309,186.884v-1.33c0-25.435,15.822-34.9,36.228-34.9c20.407,0,36.378,9.463,36.378,34.9v39.186
		c0,25.435-16.415,34.9-37.709,34.9c-24.991,0-34.897-15.527-34.897-27.801c0-7.099,3.4-9.316,10.794-9.316
		c6.358,0,11.977,1.626,11.977,8.429c0,5.619,5.916,8.575,12.865,8.575c8.725,0,13.9-4.582,13.9-14.788V211.43
		c-4.732,5.176-11.386,6.506-18.483,6.506C242.506,217.938,228.309,210.544,228.309,186.884z M277.847,183.928
		c0-10.204-5.028-14.64-13.308-14.64s-13.16,4.435-13.16,14.64v1.33c0,10.796,4.88,14.936,13.31,14.936
		c7.985,0,13.16-3.847,13.16-13.605v-2.661L277.847,183.928L277.847,183.928z"/>
	<path style="fill:#2D527C;" d="M312.447,224.74v-39.186c0-25.435,15.822-34.9,36.23-34.9c20.406,0,36.376,9.463,36.376,34.9v39.186
		c0,25.435-15.971,34.9-36.376,34.9C328.269,259.64,312.447,250.175,312.447,224.74z M361.983,185.554
		c0-10.204-5.028-14.788-13.308-14.788c-8.282,0-13.16,4.582-13.16,14.788v39.186c0,10.204,4.88,14.788,13.16,14.788
		s13.308-4.582,13.308-14.788V185.554z"/>
	<circle style="fill:#2D527C;" cx="420.86" cy="167.66" r="21.728"/>
</g>
<path style="fill:#CEE8FA;" d="M245.094,406.014c-21.6-65.617-73.491-117.505-139.108-139.105
	c-9.245-3.044-18.764-5.481-28.507-7.277v174.89h174.89C250.574,424.778,248.135,415.26,245.094,406.014z"/>
<path style="fill:#2D527C;" d="M252.369,448.772H77.479c-7.871,0-14.252-6.382-14.252-14.252V259.63
	c0-4.233,1.881-8.246,5.134-10.954c3.254-2.708,7.544-3.827,11.702-3.061c10.29,1.897,20.511,4.506,30.379,7.756
	c69.81,22.98,125.208,78.377,148.19,148.187c3.251,9.881,5.859,20.101,7.754,30.379c0.767,4.162-0.355,8.45-3.063,11.702
	S256.602,448.772,252.369,448.772z M91.731,420.268h142.775c-0.902-3.299-1.887-6.572-2.949-9.801
	c-20.164-61.252-68.772-109.858-130.027-130.021c-3.227-1.063-6.497-2.048-9.798-2.95L91.731,420.268L91.731,420.268z"/>
<g>
</g>
<g>
</g>
<g>
</g>
<g>
</g>
<g>
</g>
<g>
</g>
<g>
</g>
<g>
</g>
<g>
</g>
<g>
</g>
<g>
</g>
<g>
</g>
<g>
</g>
<g>
</g>
<g>
</g>
</svg>
