<svg height="512pt" viewBox="-28 0 511 512" width="512pt" xmlns="http://www.w3.org/2000/svg"><path d="m375.804688 10h-348.105469c-9.5 0-17.199219 7.695312-17.199219 17.1875v457.625c0 9.492188 7.699219 17.1875 17.199219 17.1875h400.363281c9.496094 0 17.195312-7.695312 17.195312-17.1875v-405.390625c0-4.5625-1.8125-8.933594-5.035156-12.15625l-52.257812-52.230469c-3.226563-3.222656-7.601563-5.035156-12.160156-5.035156zm0 0" fill="#52607e"/><path d="m71.625 310.265625h312.507812v141.167969h-312.507812zm0 0" fill="#fcfcfc"/><path d="m71.625 451.433594h312.507812v50.566406h-312.507812zm0 0" fill="#f3756a"/><path d="m96.925781 10h88.117188v131.046875h-88.117188zm0 0" fill="#50b4ff"/><path d="m184.929688 10h173.90625v131.046875h-173.90625zm0 0" fill="#fcfcfc"/><path d="m447.289062 60.191406-52.253906-52.230468c-5.136718-5.132813-11.96875-7.960938-19.230468-7.960938h-348.105469c-15 0-27.199219 12.195312-27.199219 27.1875v457.625c0 14.992188 12.199219 27.1875 27.199219 27.1875h400.363281c14.996094 0 27.195312-12.195312 27.195312-27.1875v-405.390625c0-7.265625-2.828124-14.09375-7.96875-19.230469zm-252.246093-40.191406h153.792969v111.050781h-153.792969zm-20.113281 0v111.050781h-68.003907v-111.050781zm199.203124 421.433594h-292.507812v-121.164063h292.507812zm-292.507812 50.566406v-30.566406h292.507812v30.566406zm353.632812-7.1875c0 3.960938-3.226562 7.1875-7.195312 7.1875h-33.929688v-181.730469c0-5.523437-4.480468-10-10-10h-312.507812c-5.523438 0-10 4.476563-10 10v181.730469h-33.925781c-3.96875 0-7.199219-3.226562-7.199219-7.1875v-457.625c0-3.964844 3.230469-7.1875 7.199219-7.1875h59.226562v121.050781c0 5.519531 4.476563 10 10 10h261.910157c5.519531 0 10-4.480469 10-10v-121.050781h6.96875c1.894531 0 3.75.769531 5.089843 2.105469l52.257813 52.230469c1.359375 1.359374 2.105468 3.164062 2.105468 5.082031zm0 0"/><path d="m303.855469 109.195312c-5.523438 0-10-4.476562-10-10v-47.34375c0-5.523437 4.476562-10 10-10 5.519531 0 10 4.476563 10 10v47.347657c0 5.519531-4.480469 9.996093-10 9.996093zm0 0"/><path d="m284.949219 367.386719h-156.972657c-5.523437 0-10-4.476563-10-10 0-5.523438 4.476563-10 10-10h156.972657c5.519531 0 10 4.476562 10 10 0 5.523437-4.480469 10-10 10zm0 0"/><path d="m327.777344 367.390625c-.648438 0-1.308594-.070313-1.949219-.199219-.640625-.132812-1.269531-.320312-1.867187-.570312-.609376-.25-1.191407-.558594-1.730469-.921875-.550781-.359375-1.058594-.777344-1.519531-1.238281-.460938-.460938-.882813-.96875-1.242188-1.519532-.359375-.539062-.667969-1.121094-.917969-1.730468-.25-.601563-.441406-1.230469-.570312-1.871094-.128907-.640625-.199219-1.300782-.199219-1.949219s.070312-1.308594.199219-1.960937c.128906-.628907.320312-1.257813.570312-1.867188.25-.601562.558594-1.179688.917969-1.722656.359375-.550782.78125-1.058594 1.242188-1.519532.460937-.460937.96875-.878906 1.519531-1.25.539062-.359374 1.121093-.671874 1.730469-.921874.597656-.25 1.226562-.4375 1.867187-.566407 1.292969-.261719 2.621094-.261719 3.910156 0 .632813.128907 1.261719.316407 1.871094.566407.601563.25 1.179687.5625 1.71875.921874.550781.371094 1.0625.78125 1.523437 1.25.457032.460938.878907.96875 1.25 1.519532.359376.542968.667969 1.121094.917969 1.722656.25.609375.441407 1.238281.570313 1.867188.128906.652343.1875 1.3125.1875 1.960937s-.058594 1.3125-.1875 1.949219c-.128906.640625-.320313 1.269531-.570313 1.871094-.25.601562-.558593 1.1875-.917969 1.730468-.371093.550782-.792968 1.058594-1.25 1.519532-.460937.460937-.972656.878906-1.523437 1.238281-.539063.359375-1.117187.671875-1.71875.921875-.609375.25-1.238281.441406-1.871094.570312-.648437.128906-1.300781.199219-1.960937.199219zm0 0"/><path d="m284.949219 406.03125h-156.972657c-5.523437 0-10-4.476562-10-10 0-5.519531 4.476563-10 10-10h156.972657c5.519531 0 10 4.480469 10 10 0 5.523438-4.480469 10-10 10zm0 0"/><path d="m327.777344 406.027344c-.648438 0-1.308594-.058594-1.949219-.1875s-1.269531-.320313-1.867187-.570313c-.609376-.25-1.191407-.558593-1.730469-.917969-.550781-.371093-1.058594-.792968-1.519531-1.25-.460938-.460937-.882813-.972656-1.242188-1.523437-.359375-.539063-.667969-1.117187-.917969-1.71875-.25-.609375-.441406-1.238281-.570312-1.871094-.128907-.648437-.199219-1.300781-.199219-1.960937 0-.648438.070312-1.308594.199219-1.949219.128906-.640625.320312-1.269531.570312-1.867187.25-.609376.558594-1.191407.917969-1.730469.359375-.550781.78125-1.058594 1.242188-1.519531.460937-.460938.96875-.882813 1.519531-1.242188.539062-.359375 1.121093-.667969 1.730469-.917969.597656-.25 1.226562-.441406 1.867187-.570312 1.292969-.261719 2.609375-.261719 3.910156 0 .632813.128906 1.261719.320312 1.871094.570312.601563.25 1.179687.558594 1.71875.917969.550781.359375 1.0625.78125 1.523437 1.242188.457032.460937.878907.96875 1.25 1.519531.359376.539062.667969 1.121093.917969 1.730469.25.597656.441407 1.230468.570313 1.867187.128906.640625.1875 1.300781.1875 1.949219 0 .660156-.058594 1.3125-.1875 1.960937-.128906.632813-.320313 1.261719-.570313 1.871094-.25.601563-.558593 1.179687-.917969 1.71875-.371093.550781-.792968 1.0625-1.25 1.523437-.460937.457032-.972656.878907-1.523437 1.25-.539063.359376-1.117187.667969-1.71875.917969-.609375.25-1.238281.441407-1.871094.570313-.648437.128906-1.308593.1875-1.960937.1875zm0 0"/></svg>